<svg xmlns="http://www.w3.org/2000/svg" viewBox="0 0 890.99 523.83">
  <defs>
    <style>
      .cls-1 {
        fill: #fff;
      }

      .cls-2 {
        fill: none;
        stroke: #fff;
        stroke-linecap: round;
        stroke-linejoin: round;
        stroke-width: 8.03px;
      }
    </style>
  </defs>
  <title>logo_secondary--white</title>
  <g id="Layer_2" data-name="Layer 2">
    <g id="Layer_1-2" data-name="Layer 1">
      <g>
        <g>
          <path class="cls-1" d="M19.61,129.21c0,24.76,14.47,37.27,40.7,37.27,15,0,25.26-3.68,29.92-7.85l-7.85-33.34c-1,1-4.9,2.2-8.83,2.2-5.88,0-9.8-4.9-9.8-11V83.36h24V45.11h-24V12.75H19.61V45.11H0V83.36H19.61Z"/>
          <path class="cls-1" d="M146.12,90.47C149.8,86.3,155,81.16,165,81.16c10.55,0,17.17,4.16,17.17,16.42v66H226.3V79c0-20.6-12-36.78-39.47-36.78C166,42.17,153,50.75,146.12,58.6V0H102V163.54h44.13Z"/>
          <path class="cls-1" d="M306.22,166.48c17.66,0,38.74-4.66,50.51-14.71l-18.14-27.22c-5.89,4.66-16.67,8.34-26.73,8.34-14.95,0-23.53-7.36-26-15h80.42v-9.07c0-41.68-26.72-66.69-61.54-66.69-38.25,0-64.48,27.71-64.48,62C240.27,143.19,269.2,166.48,306.22,166.48Zm-1.47-90.72c14.22,0,18.39,9.07,19.62,14.22h-39C286.85,84.59,291.27,75.76,304.75,75.76Z"/>
        </g>
        <g>
          <path class="cls-1" d="M101.6,220.53c-9.31-11.28-21.33-15.45-33.34-15.45-29.18,0-52.23,22.8-52.23,62,0,40.7,23.54,62.28,52.23,62.28,12,0,23.29-4.17,33.34-15.45v12.51h44.14V162.91H101.6Zm0,61.78c-4.16,5.15-12.5,8.09-18.39,8.09-12,0-22.06-8.58-22.06-23.29s10.05-23.05,22.06-23.05c5.89,0,14.23,2.7,18.39,7.85Z"/>
          <path class="cls-1" d="M280.34,326.45v-71.6c0-39.47-28.69-49.77-58.11-49.77-17.9,0-40,5.15-55.9,17.9l14.95,27.21c9.32-7.11,21.83-11.52,32.86-11.52,14.46,0,22.07,6.38,22.07,14.71v13.49c-6.38-8.09-20.36-13-35.8-13-17.65,0-40.7,7.11-40.7,36.53,0,27,23,39,40.7,39,14.71,0,29.18-5.89,35.8-14.22v11.28ZM218.8,300.7c-7.36,0-15.45-2.2-15.45-9.56s8.09-9.81,15.45-9.81c6.86,0,14.46,2.21,17.41,6.38v6.62C233.26,298.5,225.66,300.7,218.8,300.7Z"/>
          <path class="cls-1" d="M387.23,205.08c-20.84,0-33.83,8.58-40.7,16.43V208H302.4V326.45h44.13V253.38c3.68-4.17,8.83-9.32,18.88-9.32,10.55,0,17.16,4.66,17.16,16.92v65.47h44.14v-84.1C426.71,221.75,414.69,205.08,387.23,205.08Z"/>
          <path class="cls-1" d="M496.74,244.06c9.32,0,16.18,4.42,19.86,10.06L545,227.39c-6.62-10-23.29-22.31-50.26-22.31-37.52,0-66.45,24.52-66.45,62,0,37.76,28.93,62.28,66.45,62.28,27,0,43.64-12.51,50.26-22.31l-28.44-27a23.84,23.84,0,0,1-19.86,10.29c-12.51,0-23.29-8.09-23.29-23.29S484.23,244.06,496.74,244.06Z"/>
          <path class="cls-1" d="M579.12,146.24A24.76,24.76,0,1,0,603.88,171,24.7,24.7,0,0,0,579.12,146.24Z"/>
          <rect class="cls-1" x="557.05" y="208.02" width="44.13" height="118.42"/>
          <path class="cls-1" d="M708.08,205.08c-20.84,0-33.83,8.58-40.7,16.43V208H623.25V326.45h44.13V253.38c3.68-4.17,8.83-9.32,18.88-9.32,10.54,0,17.16,4.66,17.16,16.92v65.47h44.14v-84.1C747.56,221.75,735.54,205.08,708.08,205.08Z"/>
          <path class="cls-1" d="M846.85,208v12.51c-9.56-11.28-21.08-15.45-33.34-15.45-29.18,0-52,19.62-52,59.09,0,40.45,23.54,59.09,52,59.09,12.26,0,23.29-4.41,33.34-15.94v6.38c0,20.84-17.16,24.76-27.46,24.76-12.75,0-26.23-3.92-35.3-13l-18.64,31.38C780.9,369.11,799,374.5,819.39,374.5c29.42,0,71.6-9.56,71.6-60.8V208Zm0,68.65c-4.16,4.91-12.5,7.6-18.14,7.6-12,0-22.07-5.63-22.07-20.1s10.06-20.11,22.07-20.11c5.64,0,14,2.7,18.14,7.61Z"/>
        </g>
        <g>
          <path class="cls-1" d="M200.59,439.73c-13.48,0-21.08-10.05-21.08-23.29,0-13,7.6-23.05,21.08-23.05,13.73,0,21.33,10.05,21.33,23.05C221.92,429.68,214.32,439.73,200.59,439.73Z"/>
          <g>
            <path class="cls-1" d="M436.27,439.73c-5.89,0-9.81-4.9-9.81-11V395.6h24V357.35h-24V325H382.33v32.36H362.71V395.6h19.62v45.85c0,24.76,14.46,37.26,40.7,37.26,15,0,25.25-3.67,29.91-7.84l-7.85-33.35C444.11,438.5,440.19,439.73,436.27,439.73Z"/>
            <path class="cls-1" d="M134.15,416.44a61.88,61.88,0,0,1,10.72-35.3V357.35H100.74v12.5c-9.56-11.27-21.08-15.44-33.34-15.44-29.18,0-52,19.61-52,59.09,0,40.45,23.53,59.09,52,59.09,12.26,0,23.29-4.42,33.34-15.94V463c0,20.84-17.16,24.77-27.46,24.77-12.75,0-26.23-3.93-35.31-13L19.34,506.18c15.45,12.25,33.59,17.65,53.94,17.65,29.42,0,71.59-9.56,71.59-60.81v-11.2A62.27,62.27,0,0,1,134.15,416.44ZM100.74,426c-4.17,4.9-12.5,7.6-18.14,7.6-12,0-22.07-5.64-22.07-20.1s10-20.11,22.07-20.11c5.64,0,14,2.7,18.14,7.6Z"/>
            <path class="cls-1" d="M313.46,354.41c-17.9,0-44.91,4.53-60.84,17.28l14.95,27.21c9.32-7.11,26.76-10.9,37.8-10.9,14.46,0,22.06,6.37,22.06,14.71v13.48c-6.37-8.09-20.35-13-35.79-13-9.31,0-20.12,2-28.26,8.17.13,1.67.2,3.37.2,5.07A62.18,62.18,0,0,1,252.74,452c5.74,18.39,24.18,26.74,38.9,26.74s29.17-5.88,35.79-14.22v11.28h44.14V404.18C371.57,364.7,342.88,354.41,313.46,354.41Zm14,89.24c-2.94,4.17-10.54,6.38-17.4,6.38-7.36,0-15.45-2.21-15.45-9.56s8.09-9.81,15.45-9.81c6.86,0,14.46,2.21,17.4,6.37Z"/>
            <path class="cls-2" d="M200.59,354.41c-41.92,0-66.44,28.93-66.44,62s24.52,62.27,66.44,62.27c42.17,0,66.69-29.17,66.69-62.27S242.76,354.41,200.59,354.41Zm0,85.32c-13.48,0-21.08-10.05-21.08-23.29,0-13,7.6-23.05,21.08-23.05,13.73,0,21.33,10.05,21.33,23.05C221.92,429.68,214.32,439.73,200.59,439.73Z"/>
          </g>
        </g>
      </g>
    </g>
  </g>
</svg>
