<svg xmlns="http://www.w3.org/2000/svg" viewBox="0 0 806.99 474.44">
  <defs>
    <style>
      .svg-fill--cta {
        fill: #9b4b60;
      }

      .svg-stroke--cta {
        fill: none;
        stroke: #9b4b60;
        stroke-linecap: round;
        stroke-linejoin: round;
        stroke-width: 7.27px;
      }
    </style>
  </defs>
  <title>logo_hero--dark</title>
  <g id="Layer_2" data-name="Layer 2">
    <g id="Layer_1-2" data-name="Layer 1">
      <g>
        <g>
          <path d="M17.77,117c0,22.43,13.1,33.75,36.86,33.75,13.54,0,22.87-3.33,27.09-7.1l-7.11-30.2c-.88.88-4.44,2-8,2-5.33,0-8.88-4.44-8.88-10v-30H79.5V40.86H57.74V11.55h-40V40.86H0V75.5H17.77Z"/>
          <path d="M132.35,81.94c3.33-3.77,8-8.44,17.1-8.44C159,73.5,165,77.28,165,88.38v59.74h40V71.51c0-18.66-10.88-33.31-35.75-33.31-18.87,0-30.64,7.77-36.86,14.87V0h-40V148.12h40Z"/>
          <path d="M277.35,150.78c16,0,35.09-4.22,45.75-13.32l-16.43-24.65c-5.33,4.22-15.1,7.55-24.21,7.55-13.54,0-21.32-6.66-23.54-13.55h72.84V98.6c0-37.75-24.2-60.4-55.74-60.4-34.64,0-58.4,25.09-58.4,56.18C217.62,129.69,243.82,150.78,277.35,150.78ZM276,68.62c12.88,0,16.66,8.22,17.77,12.88H258.48C259.81,76.61,263.81,68.62,276,68.62Z"/>
        </g>
        <g>
          <path d="M92,199.74c-8.43-10.22-19.32-14-30.2-14-26.42,0-47.3,20.65-47.3,56.18,0,36.86,21.32,56.4,47.3,56.4,10.88,0,21.1-3.77,30.2-14v11.33h40V147.55H92Zm0,56C88.25,260.36,80.7,263,75.37,263c-10.88,0-20-7.78-20-21.1s9.11-20.87,20-20.87c5.33,0,12.88,2.44,16.65,7.1Z"/>
          <path d="M253.91,295.67V230.83c0-35.76-26-45.08-52.63-45.08-16.21,0-36.2,4.66-50.63,16.21l13.54,24.65c8.44-6.44,19.77-10.44,29.76-10.44,13.1,0,20,5.77,20,13.32v12.22c-5.78-7.33-18.44-11.77-32.43-11.77-16,0-36.86,6.44-36.86,33.09,0,24.42,20.88,35.3,36.86,35.3,13.33,0,26.43-5.32,32.43-12.88v10.22Zm-55.74-23.32c-6.66,0-14-2-14-8.66s7.33-8.88,14-8.88c6.22,0,13.1,2,15.77,5.77v6C211.27,270.35,204.39,272.35,198.17,272.35Z"/>
          <path d="M350.73,185.75c-18.88,0-30.65,7.77-36.87,14.87V188.41h-40V295.67h40V229.49c3.33-3.77,8-8.43,17.1-8.43,9.55,0,15.55,4.21,15.55,15.32v59.29h40V219.5C386.48,200.85,375.6,185.75,350.73,185.75Z"/>
          <path d="M449.91,221.06c8.44,0,14.65,4,18,9.1L493.65,206c-6-9.1-21.09-20.2-45.52-20.2-34,0-60.18,22.2-60.18,56.18,0,34.2,26.2,56.4,60.18,56.4,24.43,0,39.53-11.32,45.52-20.2L467.89,253.7a21.58,21.58,0,0,1-18,9.33c-11.33,0-21.1-7.33-21.1-21.1S438.58,221.06,449.91,221.06Z"/>
          <path class="svg-fill--cta" d="M524.52,132.45A22.43,22.43,0,1,0,547,154.88,22.36,22.36,0,0,0,524.52,132.45Z"/>
          <rect x="504.53" y="188.41" width="39.97" height="107.26"/>
          <path d="M641.33,185.75c-18.88,0-30.65,7.77-36.87,14.87V188.41h-40V295.67h40V229.49c3.33-3.77,8-8.43,17.1-8.43,9.55,0,15.55,4.21,15.55,15.32v59.29h40V219.5C677.08,200.85,666.2,185.75,641.33,185.75Z"/>
          <path d="M767,188.41v11.33c-8.66-10.22-19.09-14-30.2-14-26.42,0-47.07,17.76-47.07,53.51,0,36.65,21.31,53.52,47.07,53.52,11.11,0,21.1-4,30.2-14.43v5.77c0,18.88-15.54,22.43-24.87,22.43-11.54,0-23.76-3.55-32-11.77l-16.88,28.43c14,11.1,30.42,16,48.85,16,26.65,0,64.85-8.66,64.85-55.07V188.41Zm0,62.18c-3.77,4.44-11.32,6.88-16.43,6.88-10.88,0-20-5.1-20-18.21s9.1-18.2,20-18.2c5.11,0,12.66,2.44,16.43,6.88Z"/>
        </g>
        <g>
          <path class="svg-fill--cta" d="M181.68,398.27c-12.21,0-19.1-9.1-19.1-21.09,0-11.77,6.89-20.88,19.1-20.88,12.44,0,19.32,9.11,19.32,20.88C201,389.17,194.12,398.27,181.68,398.27Z"/>
          <g>
            <path d="M395.14,398.27c-5.33,0-8.89-4.44-8.89-10v-30H408V323.66H386.25V294.35h-40v29.31H328.52V358.3h17.76v41.53c0,22.43,13.1,33.75,36.87,33.75,13.54,0,22.87-3.33,27.09-7.1l-7.11-30.2C402.24,397.16,398.69,398.27,395.14,398.27Z"/>
            <path d="M121.5,377.18a56,56,0,0,1,9.72-32V323.66h-40V335c-8.66-10.21-19.09-14-30.2-14C34.62,321,14,338.76,14,374.51,14,411.15,35.28,428,61,428c11.11,0,21.1-4,30.2-14.43v5.77c0,18.88-15.54,22.43-24.87,22.43-11.55,0-23.76-3.55-32-11.77L17.52,458.45c14,11.11,30.42,16,48.85,16,26.65,0,64.85-8.66,64.85-55.07V409.22A56.36,56.36,0,0,1,121.5,377.18Zm-30.26,8.66c-3.77,4.44-11.32,6.88-16.43,6.88-10.88,0-20-5.1-20-18.21s9.11-18.21,20-18.21c5.11,0,12.66,2.45,16.43,6.89Z"/>
            <path d="M283.91,321c-16.21,0-40.67,4.11-55.11,15.66l13.55,24.65c8.44-6.44,24.24-9.88,34.23-9.88,13.1,0,20,5.77,20,13.32V377c-5.77-7.33-18.43-11.77-32.42-11.77-8.43,0-18.22,1.79-25.59,7.39.12,1.52.18,3.06.18,4.6a56.32,56.32,0,0,1-9.82,32.18c5.2,16.66,21.91,24.22,35.23,24.22s26.43-5.33,32.42-12.88v10.22h40V366.07C336.54,330.32,310.55,321,283.91,321Zm12.65,80.84c-2.66,3.77-9.54,5.77-15.76,5.77-6.66,0-14-2-14-8.66s7.33-8.88,14-8.88c6.22,0,13.1,2,15.76,5.77Z"/>
            <path class="svg-stroke--cta" d="M181.68,321c-38,0-60.18,26.21-60.18,56.19s22.21,56.4,60.18,56.4c38.2,0,60.4-26.42,60.4-56.4S219.88,321,181.68,321Zm0,77.28c-12.21,0-19.1-9.1-19.1-21.09,0-11.77,6.89-20.88,19.1-20.88,12.44,0,19.32,9.11,19.32,20.88C201,389.17,194.12,398.27,181.68,398.27Z"/>
          </g>
        </g>
      </g>
    </g>
  </g>
</svg>
